<svg xmlns="http://www.w3.org/2000/svg" width="200" height="243"><path d="M92.062 23.111H28.787c-8.55 0-15.391 7.126-15.391 15.676v51.019L0 82.11V38.787C0 22.826 13.111 10 28.787 10h63.275C157.902 10 199.8 63.014 199.8 117.453c0 25.082-8.55 48.454-23.087 66.695l-11.686-6.84c13.396-16.247 21.377-37.053 21.377-59.855 0-52.729-43.323-94.342-94.342-94.342zM66.695 219.776h38.763c29.357 0 55.58-13.681 72.965-34.488l11.686 6.556c-19.951 25.082-50.449 41.328-84.651 41.328H42.183c-15.676 0-28.787-12.826-28.787-28.787V89.806l11.116 6.27V41.352c0-3.705 3.135-6.84 6.84-6.84h61.565c47.029.57 82.371 38.193 82.371 83.511 0 20.807-7.695 39.333-20.236 53.584l-11.686-6.555c11.4-12.256 18.526-28.788 18.526-47.029.57-38.193-30.782-70.115-68.975-70.115h-55.01v56.15l-11.115-6.271v106.598c0 8.55 7.126 15.39 15.676 15.39-2.85-4.275-4.56-9.69-4.56-15.39V104.057l13.396 7.696v83.51h53.869c20.236 0 38.763-8.835 51.589-22.516l11.686 6.84c-15.392 17.672-38.193 28.788-63.275 28.788h-53.3c1.711 6.555 7.696 11.4 14.822 11.4z" fill="#292929"/></svg>