<svg xmlns="http://www.w3.org/2000/svg" width="200" height="51"><path d="M18.755 11.09q2.56.966 4.616 3.106 4.405 4.447 4.405 11.35t-4.405 11.391q-2.056 2.14-4.616 3.105-2.643 1.091-5.412 1.091H1.469q-.588 0-1.028-.44T0 39.663v-3.02q0-.63.44-1.07t1.029-.441h11.748q3.734 0 6.063-2.727t2.328-6.84-2.328-6.839T13.217 16H1.469Q.88 16 .44 15.56T0 14.49v-3.021q0-.588.44-1.028T1.47 10h11.874q2.769 0 5.412 1.09zm29.539-.209l11.748 27.734q.21.336.21.714 0 .587-.42 1.028t-1.049.44h-3.482q-.462 0-.818-.23t-.525-.65l-3.063-7.218H39.021l-3.02 7.217q-.169.42-.525.65t-.819.231h-3.482q-.378 0-.713-.188t-.525-.483-.23-.65.125-.693l11.832-27.902q.168-.42.525-.65t.818-.231h3.944q.462 0 .818.23t.525.651zm-3.315 7.637l-3.482 8.35h6.965zM101.916 10q.714 0 1.175.587.21.294.273.65t-.063.651L94.658 39.79q-.168.462-.546.735t-.88.272h-3.567q-.462 0-.86-.293t-.525-.714L82.112 20.7l-6.126 19.09q-.168.462-.545.735t-.84.272h-3.608q-.461 0-.839-.272t-.545-.735l-8.644-27.902q-.126-.294-.063-.65t.252-.65.525-.441.67-.147h3.316q.461 0 .86.294t.524.755l5.79 18.923 6.084-18.965q.168-.462.546-.734t.839-.273h3.65q.462 0 .84.273t.545.734l6.042 18.965 5.79-18.923q.168-.462.546-.755T98.6 10h3.315zm27.231 0q.63 0 1.05.44t.419 1.029v3.02q0 .588-.42 1.029t-1.049.44h-15.86v6.42h14.014q.63 0 1.05.44t.419 1.028v3.063q0 .588-.42 1.028t-1.049.44h-14.014v6.462h15.86q.63 0 1.05.44t.419 1.029v3.02q0 .588-.42 1.029t-1.049.44h-20.475q-.588 0-1.028-.44t-.44-1.028v-27.86q0-.588.44-1.028t1.028-.441h20.475zm11.161 0q.588 0 1.028.44t.44 1.029v27.86q0 .587-.44 1.028t-1.028.44h-3.147q-.587 0-1.028-.44t-.44-1.028v-27.86q0-.588.44-1.028t1.028-.441h3.147zm28.07 24.84q.63 0 1.05.44t.419 1.028v3.02q0 .588-.42 1.029t-1.049.44h-18.335q-.588 0-1.028-.44t-.441-1.028v-27.86q0-.588.44-1.028t1.029-.441h3.146q.588 0 1.028.44t.44 1.029v23.37h13.721zM198.336 10q.714 0 1.217.63.42.713.126 1.384l-11.287 27.86q-.168.42-.545.672t-.797.251h-3.609q-.461 0-.818-.251t-.566-.672l-11.287-27.86q-.294-.755.168-1.385.21-.293.524-.461t.692-.168h3.441q.42 0 .797.252t.546.671l8.307 20.853 8.266-20.853q.21-.42.567-.671t.818-.252h3.44z" fill="#292929"/></svg>