<svg xmlns="http://www.w3.org/2000/svg" xmlns:xlink="http://www.w3.org/1999/xlink" viewBox="0 0 640 690"><defs><marker id="c" viewBox="-13 -5 14 10" refX="-4" markerWidth="10" markerHeight="20" orient="auto"><use xlink:href="#a" stroke="#000"/></marker><marker id="d" viewBox="-13 -5 14 10" refX="-4" markerWidth="10" markerHeight="20" orient="auto"><use xlink:href="#a" stroke="red" fill="red"/></marker><marker id="f" viewBox="-13 -5 14 10" refX="-4" markerWidth="10" markerHeight="20" orient="auto"><use xlink:href="#a" stroke="green" fill="green"/></marker><filter x="-5%" y="-5%" width="120%" height="120%" id="b"><feGaussianBlur stdDeviation="2 2" in="SourceAlpha"/><feOffset dx="4" dy="4"/><feComponentTransfer result="shadow"><feFuncA type="linear" slope=".55"/></feComponentTransfer><feMerge><feMergeNode/><feMergeNode in="SourceGraphic"/></feMerge></filter><path id="a" d="M-9-4l9 4-9 4z" stroke-linejoin="round" stroke-linecap="round"/></defs><g font-family="Verdana, sans-serif" font-size="18" text-anchor="middle" stroke-width="2"><a xlink:href="../DOM3-Events.html#glossary-window" target="_parent" transform="translate(310 10)"><path fill="#dcdcdc" stroke="#000" filter="url(#b)" d="M-70 0H70v40H-70z"/><text y="26">Window</text></a><a xlink:href="../DOM3-Events.html#glossary-document" target="_parent" transform="translate(310 80)"><path fill="#dcdcdc" stroke="#000" filter="url(#b)" d="M-60 0H60v40H-60z"/><text y="26">Document</text></a><g transform="translate(310 150)"><rect x="-50" width="100" height="40" rx="5" ry="5" fill="#87cefa" stroke="#000" filter="url(#b)"/><text y="26">&lt;html&gt;</text></g><g transform="translate(310 220)"><rect x="-50" width="100" height="40" rx="5" ry="5" fill="#87cefa" stroke="#000" filter="url(#b)"/><text y="26">&lt;body&gt;</text></g><g transform="translate(310 290)"><rect x="-50" width="100" height="40" rx="5" ry="5" fill="#87cefa" stroke="#000" filter="url(#b)"/><text y="26">&lt;table&gt;</text></g><g transform="translate(310 360)"><rect x="-50" width="100" height="40" rx="5" ry="5" fill="#87cefa" stroke="#000" filter="url(#b)"/><text y="26">&lt;tbody&gt;</text></g><g transform="translate(140 450)"><rect x="-50" width="100" height="40" rx="5" ry="5" fill="#87cefa" stroke="#000" filter="url(#b)"/><text y="26">&lt;tr&gt;</text></g><g transform="translate(500 450)"><rect x="-50" width="100" height="40" rx="5" ry="5" fill="#87cefa" stroke="#000" filter="url(#b)"/><text y="26">&lt;tr&gt;</text></g><g transform="translate(70 540)"><rect x="-50" width="100" height="40" rx="5" ry="5" fill="#87cefa" stroke="#000" filter="url(#b)"/><text y="26">&lt;td&gt;</text></g><g transform="translate(70 610)"><ellipse cy="35" rx="64" ry="35" fill="#4682b4" stroke="#000" filter="url(#b)"/><text y="40" font-size="15" fill="#fff">Shady Grove</text></g><g transform="translate(210 540)"><rect x="-50" width="100" height="40" rx="5" ry="5" fill="#87cefa" stroke="#000" filter="url(#b)"/><text y="26">&lt;td&gt;</text></g><g transform="translate(210 610)"><ellipse cy="35" rx="64" ry="35" fill="#4682b4" stroke="#000" filter="url(#b)"/><text y="40" font-size="15" fill="#fff">Aeolian</text></g><g transform="translate(430 540)"><rect x="-50" width="100" height="40" rx="5" ry="5" fill="#00f" stroke="#000" filter="url(#b)"/><text y="26" fill="#fff">&lt;td&gt;</text></g><g transform="translate(430 610)"><ellipse cy="35" rx="64" ry="35" fill="#4682b4" stroke="#000" filter="url(#b)"/><text y="40" font-size="15" fill="#fff"><tspan x="0" y="34">Over the River,</tspan> <tspan x="0" y="54">Charlie</tspan></text></g><g transform="translate(570 540)"><rect x="-50" width="100" height="40" rx="5" ry="5" fill="#87cefa" stroke="#000" filter="url(#b)"/><text y="26">&lt;td&gt;</text></g><g transform="translate(570 610)"><ellipse cy="35" rx="64" ry="35" fill="#4682b4" stroke="#000" filter="url(#b)"/><text y="40" font-size="15" fill="#fff">Dorian</text></g></g><g stroke="#000" stroke-width="2" marker-end="url(#c)"><path d="M310 50v23M310 120v23M310 190v23M310 260v23M310 330v23"/><path fill="none" d="M310 400q0 20-50 20H160q-20 0-20 23M310 400q0 20 70 20h100q20 0 20 23M140 490q0 20-20 20H90q-20 0-20 23M140 490q0 20 20 20h30q20 0 20 23M500 490q0 20-20 20h-30q-20 0-20 23M500 490q0 20 40 20h10q20 0 20 23"/><path d="M70 580v23M210 580v23M430 580v23M570 580v23"/></g><g stroke-dasharray="10,5"><a xlink:href="../DOM3-Events.html#glossary-capture-phase" target="_parent"><text fill="red" font-family="Verdana, sans-serif" font-size="20" font-weight="bold" text-anchor="middle"><tspan x="150" y="220">Capture</tspan> <tspan x="150" y="240">Phase</tspan> <tspan x="150" y="260">(1)</tspan></text></a><path id="e" fill="none" stroke="red" stroke-width="3" marker-end="url(#d)" stroke-linecap="round" d="M235 28c-40-3-40 47 3 57"/><use xlink:href="#e" x="5" y="70"/><use xlink:href="#e" x="10" y="140"/><use xlink:href="#e" x="10" y="210"/><use xlink:href="#e" x="10" y="280"/><path fill="none" stroke="red" stroke-width="3" marker-end="url(#d)" stroke-linecap="round" d="M245 378c-40-3-40 95 183 80"/><path fill="none" stroke="red" stroke-width="3" marker-end="url(#d)" stroke-linecap="round" stroke-dasharray="none" d="M428 473c-98-3-98 60-65 75"/><g><a xlink:href="../DOM3-Events.html#glossary-target-phase" target="_parent"><text fill="#00f" font-family="Verdana, sans-serif" font-size="20" font-weight="bold" text-anchor="middle"><tspan x="337" y="580">Target</tspan> <tspan x="337" y="600">Phase</tspan> <tspan x="337" y="620">(2)</tspan></text></a><rect x="-50" width="100" height="40" rx="5" ry="5" fill="none" stroke="#000" stroke-width="5" stroke-dasharray="none" transform="translate(430 540)"/></g><g><a xlink:href="../DOM3-Events.html#glossary-bubbling-phase" target="_parent"><text fill="green" font-family="Verdana, sans-serif" font-size="20" font-weight="bold" text-anchor="middle"><tspan x="490" y="320">Bubbling</tspan> <tspan x="490" y="340">Phase</tspan> <tspan x="490" y="360">(3)</tspan></text></a><path fill="none" stroke="green" stroke-width="3" marker-end="url(#f)" stroke-linecap="round" stroke-dasharray="none" d="M492 548c138-65 138-78 70-75"/><path fill="none" stroke="green" stroke-width="3" marker-end="url(#f)" stroke-linecap="round" d="M565 457c40-10 40-59-188-69"/><path id="g" fill="none" stroke="green" stroke-width="3" marker-end="url(#f)" stroke-linecap="round" d="M375 375c40-3 40-43 0-53"/><use xlink:href="#g" y="-70"/><use xlink:href="#g" y="-140"/><path fill="none" stroke="green" stroke-width="3" marker-end="url(#f)" stroke-linecap="round" d="M375 165c50-3 50-43 10-53M385 95c50-3 50-43 10-53"/></g></g></svg>